<?xml version="1.0" encoding="UTF-8"?>
<svg id="Calque_1" xmlns="http://www.w3.org/2000/svg" version="1.1" viewBox="0 0 262 111.1">
  <!-- Generator: Adobe Illustrator 29.2.1, SVG Export Plug-In . SVG Version: 2.1.0 Build 116)  -->
  <defs>
    <style>
      .st0 {
        fill: #676156;
      }

      .st1 {
        fill: #fff;
      }
    </style>
  </defs>
  <g id="Logo">
    <g id="Groupe_4">
      <path id="Tracé_15" class="st1" d="M34,79.6c-4.5,0-8-1.3-10.5-3.8s-3.8-6.4-3.9-11.4v-20h3.7v19.9c0,4.1.9,7.2,2.8,9.2,1.9,2,4.5,2.9,7.9,2.9s6.1-1,8-2.9,2.8-5,2.8-9.2v-19.9h3.6v20c0,5-1.3,8.8-3.8,11.4-2.5,2.6-6.1,3.9-10.5,3.8Z"/>
      <path id="Tracé_16" class="st1" d="M64.5,79.3v-35h13.1c2.6,0,5.2.4,7.7,1.4,2,.9,3.7,2.3,4.9,4.1,1.2,1.9,1.8,4.2,1.7,6.5,0,2.3-.5,4.5-1.7,6.4-1.2,1.8-2.9,3.2-4.9,4.1-2.4,1-5,1.5-7.7,1.4h-11.1l1.7-1.7v12.8s-3.7,0-3.7,0ZM68.2,66.8l-1.7-1.8h10.9c3.5,0,6.2-.8,8-2.3,1.9-1.6,2.9-4,2.7-6.5.1-2.5-.9-4.9-2.7-6.5-1.8-1.5-4.5-2.3-8-2.3h-10.9l1.7-1.8v21ZM88.4,79.3l-9-12.7h4l9.1,12.7h-4.1Z"/>
      <path id="Tracé_17" class="st1" d="M105.7,79.3v-35h15.1c3.9,0,6.9.8,9.1,2.3,2.1,1.5,3.3,4,3.2,6.7.2,3.4-1.8,6.5-4.9,7.7-1.6.7-3.3,1-5,1l.8-1.2c2,0,3.9.3,5.8,1,1.5.6,2.9,1.7,3.8,3,.9,1.5,1.4,3.2,1.4,5,.1,2.7-1.1,5.3-3.3,6.9-2.2,1.6-5.5,2.4-9.9,2.4,0,0-16.1,0-16.1,0ZM109.4,76.2h12.3c3.1,0,5.4-.5,7.1-1.6,1.7-1.1,2.6-3,2.5-5,.1-2-.8-3.9-2.4-5-1.6-1-4-1.6-7.1-1.6h-12.8v-3h11.6c2.3.1,4.6-.4,6.5-1.6,1.5-1.1,2.4-2.9,2.3-4.7.1-1.9-.8-3.7-2.3-4.8-2-1.2-4.2-1.7-6.5-1.6h-11.2v28.9h0Z"/>
      <path id="Tracé_18" class="st1" d="M142.8,79.3l16-35h3.6l16,35h-3.9l-14.7-32.8h1.5l-14.7,32.8h-3.9ZM149.1,69.9l1.1-3h20.4l1.1,3h-22.6,0Z"/>
      <path id="Tracé_19" class="st1" d="M189.2,79.3v-35h3.7v35h-3.7Z"/>
      <path id="Tracé_20" class="st1" d="M209.3,79.3v-35h3.1l24.1,30.4h-1.6v-30.4h3.6v35h-3.1l-24.1-30.4h1.6v30.4h-3.7,0Z"/>
    </g>
    <path id="Tracé_21" class="st0" d="M205.1,17.4l-11.3,6.4v-1.3l11.3,6.4-1.9,3.4-11.1-6.5.9-.4v12.5h-3.8v-12.6c0,0,.9.4.9.4l-11.1,6.5-2-3.4,11.4-6.4v1.3l-11.4-6.4,2-3.4,11.1,6.5-.8.4v-12.6c0,0,3.7,0,3.7,0v12.6l-.9-.4,11.1-6.5,1.9,3.4Z"/>
    <path id="Tracé_22" class="st0" d="M262.7,100.9h-17.8v-3h14.8V25.6h-50.9v-3h53.9v78.3Z"/>
    <path id="Tracé_23" class="st0" d="M181.7,100.9H.9V22.6h169v3H3.9v72.3h177.8v3Z"/>
    <g id="Groupe_5">
      <path id="Tracé_24" class="st1" d="M194.7,100.4l-2.2-3.1h-2.4v3.1h-2.6v-11.2h4.9c.9,0,1.8.2,2.6.5,1.4.6,2.3,2,2.3,3.6,0,.8-.2,1.5-.6,2.2-.4.6-1,1.1-1.7,1.4l2.5,3.6h-2.8ZM194.1,91.8c-.5-.4-1.1-.5-1.8-.5h-2.1v3.9h2.1c.6,0,1.3-.1,1.8-.5.4-.4.6-.9.6-1.4,0-.6-.2-1.1-.6-1.4Z"/>
      <path id="Tracé_25" class="st1" d="M208.7,98.3v2.1h-8.7v-11.2h8.5v2.1h-5.9v2.4h5.2v2h-5.2v2.6h6.1,0Z"/>
      <path id="Tracé_26" class="st1" d="M212.6,100.2c-.7-.2-1.4-.5-2-.9l.9-1.9c.5.4,1.1.7,1.7.8.6.2,1.3.3,2,.3.6,0,1.1,0,1.6-.3.3-.2.5-.5.5-.9,0-.3-.1-.5-.3-.7-.2-.2-.5-.3-.8-.4-.3-.1-.8-.2-1.3-.3-.7-.2-1.4-.4-2.1-.6-.5-.2-1-.5-1.4-1-.4-.5-.6-1.1-.6-1.8,0-.6.2-1.2.5-1.8.4-.6.9-1,1.6-1.3.8-.3,1.7-.5,2.6-.5.7,0,1.4,0,2.1.3.6.2,1.2.4,1.8.7l-.8,2c-.9-.6-2-.9-3.1-.9-.6,0-1.1,0-1.6.3-.3.2-.5.5-.5.9,0,.4.2.7.6.9.6.2,1.2.4,1.8.6.7.2,1.4.4,2.1.6.5.2,1,.5,1.4,1,.4.5.6,1.1.6,1.8,0,.6-.2,1.2-.5,1.8-.4.6-1,1-1.6,1.3-.8.3-1.7.5-2.6.5-.9,0-1.7-.1-2.6-.4h0Z"/>
      <path id="Tracé_27" class="st1" d="M224.5,91.3h-3.6v-2.1h9.8v2.1h-3.6v9.1h-2.6v-9.1h0Z"/>
      <path id="Tracé_28" class="st1" d="M234.1,99.9c-.7-.5-1.3-1.2-1.7-2-.8-2-.8-4.2,0-6.2.4-.8,1-1.5,1.7-2,2.1-1.4,5-.8,6.3,1.4.1.2.2.4.3.6.8,2,.8,4.2,0,6.2-.4.8-1,1.5-1.7,2-1.5.9-3.4.9-5,0ZM238.1,97.5c.4-.8.6-1.8.6-2.7,0-.9-.1-1.9-.6-2.7-.3-.6-1-.9-1.6-.9-.7,0-1.3.3-1.6.9-.8,1.7-.8,3.7,0,5.4.3.6.9.9,1.6.9.7,0,1.3-.3,1.6-.9h0Z"/>
    </g>
  </g>
</svg>